<svg width="32" height="32" viewBox="0 0 32 32" fill="none" xmlns="http://www.w3.org/2000/svg">
    <circle cx="16" cy="16" r="16" fill="#9EDC29"/>
    <path d="M13.9849 24C13.7929 24 13.6329 23.932 13.5049 23.796L11.1049 21.396C10.9689 21.268 10.9009 21.108 10.9009 20.916V8.304C10.9009 8.104 11.0009 8.004 11.2009 8.004H14.5969C14.7969 8.004 14.8969 8.104 14.8969 8.304V20.556C14.8969 20.716 14.9769 20.796 15.1369 20.796H17.1049V8.304C17.1049 8.104 17.2049 8.004 17.4049 8.004H20.8009C21.0009 8.004 21.1009 8.104 21.1009 8.304V23.7C21.1009 23.9 21.0009 24 20.8009 24H13.9849Z" fill="black"/>
</svg>
