<svg width="62" viewBox="0 0 345 122" fill="none" xmlns="http://www.w3.org/2000/svg"><g clip-path="url(#clip0_123_66)"><path fill-rule="evenodd" clip-rule="evenodd" d="M104.913 113.943C102.807 112.747 100.427 112.118 98.0067 112.118C95.5861 112.118 93.2068 112.747 91.1009 113.943C65.514 128.615 33.1114 122.802 14.1906 100.147C-4.73021 77.4923 -4.73021 44.507 14.1906 21.853C33.1108 -0.801612 65.5128 -6.61471 91.1015 8.05715C93.2073 9.25307 95.5865 9.88168 98.007 9.88168C100.428 9.88168 102.807 9.25307 104.913 8.05715C113.823 2.92943 124.154 0.00344938 135.165 0.00344938C146.175 0.00344938 156.561 2.95102 165.481 8.10034C167.593 9.30426 169.98 9.9373 172.409 9.9373C174.838 9.9373 177.225 9.30426 179.336 8.10034C188.267 2.95102 198.621 0.00344938 209.653 0.00344938C220.685 0.00344938 231.039 2.95102 239.97 8.10034C242.081 9.30426 244.468 9.9373 246.897 9.9373C249.326 9.9373 251.714 9.30426 253.825 8.10034C279.41 -6.6178 311.847 -0.832457 330.791 21.8308C349.736 44.4935 349.736 77.5065 330.791 100.17C311.847 122.832 279.41 128.618 253.825 113.9C251.714 112.696 249.326 112.063 246.897 112.063C244.468 112.063 242.081 112.696 239.97 113.9C231.039 119.05 220.685 121.997 209.653 121.997C198.621 121.997 188.257 119.05 179.336 113.9C177.225 112.696 174.838 112.063 172.409 112.063C169.98 112.063 167.593 112.696 165.481 113.9C156.551 119.05 146.197 121.997 135.165 121.997C124.133 121.997 113.823 119.071 104.913 113.943Z" fill="#9EDC29"></path><path d="M83.0972 85C82.4572 85 81.9239 84.7733 81.4972 84.32L73.4972 76.32C73.0439 75.8933 72.8172 75.36 72.8172 74.72V42C72.8172 41.3333 73.1505 41 73.8172 41H84.4972C85.1639 41 85.4972 41.3333 85.4972 42V73.12C85.4972 74.3733 86.1105 75 87.3372 75H92.8172V42C92.8172 41.3333 93.1505 41 93.8172 41H104.497C105.164 41 105.497 41.3333 105.497 42V84C105.497 84.6667 105.164 85 104.497 85H83.0972ZM120.648 85C119.982 85 119.648 84.6667 119.648 84V42C119.648 41.3333 119.982 41 120.648 41H142.048C142.662 41 143.195 41.2267 143.648 41.68L151.648 49.68C152.102 50.1067 152.328 50.64 152.328 51.28V84C152.328 84.6667 151.995 85 151.328 85H140.648C139.982 85 139.648 84.6667 139.648 84V52.88C139.648 51.6267 139.022 51 137.768 51H132.328V84C132.328 84.6667 131.995 85 131.328 85H120.648ZM167.48 85C166.813 85 166.48 84.6667 166.48 84V42C166.48 41.3333 166.813 41 167.48 41H178.12C178.786 41 179.12 41.3333 179.12 42V84C179.12 84.6667 178.786 85 178.12 85H167.48ZM167.28 37.68C166.746 37.68 166.48 37.4133 166.48 36.88V31.8C166.48 31.2667 166.746 31 167.28 31H178.4C178.88 31 179.12 31.2667 179.12 31.8V36.88C179.12 37.4133 178.88 37.68 178.4 37.68H167.28ZM194.233 85C193.566 85 193.233 84.6667 193.233 84V42C193.233 41.3333 193.566 41 194.233 41H215.633C216.246 41 216.779 41.2267 217.233 41.68L225.233 49.68C225.686 50.1067 225.913 50.64 225.913 51.28V84C225.913 84.6667 225.579 85 224.913 85H214.233C213.566 85 213.233 84.6667 213.233 84V52.88C213.233 51.6267 212.606 51 211.353 51H205.913V84C205.913 84.6667 205.579 85 204.913 85H194.233ZM250.064 85C249.451 85 248.917 84.7733 248.464 84.32L240.464 76.32C240.011 75.8933 239.784 75.36 239.784 74.72V51.28C239.784 50.64 240.011 50.1067 240.464 49.68L248.464 41.68C248.917 41.2267 249.451 41 250.064 41H262.184C262.824 41 263.357 41.2267 263.784 41.68L271.784 49.68C272.237 50.1067 272.464 50.64 272.464 51.28V74.72C272.464 75.36 272.237 75.8933 271.784 76.32L263.784 84.32C263.357 84.7733 262.824 85 262.184 85H250.064ZM254.744 75.68H257.544C258.397 75.68 258.984 75.5067 259.304 75.16C259.624 74.8133 259.784 74.2 259.784 73.32V52.68C259.784 51.8 259.624 51.1867 259.304 50.84C258.984 50.4933 258.397 50.32 257.544 50.32H254.744C253.864 50.32 253.264 50.4933 252.944 50.84C252.624 51.1867 252.464 51.8 252.464 52.68V73.32C252.464 74.2 252.624 74.8133 252.944 75.16C253.264 75.5067 253.864 75.68 254.744 75.68Z" fill="black"></path></g><defs><clipPath id="clip0_123_66"><rect width="345" height="122" fill="white"></rect></clipPath></defs></svg>